<?xml version="1.0" encoding="UTF-8" standalone="no"?>
<!DOCTYPE svg PUBLIC "-//W3C//DTD SVG 1.1//EN"
 "http://www.w3.org/Graphics/SVG/1.1/DTD/svg11.dtd">
<!-- Generated by graphviz version 2.28.0 (20111028.1807)
 -->
<!-- Title: G Pages: 1 -->
<svg width="2488pt" height="332pt"
 viewBox="0.00 0.00 2487.82 332.00" xmlns="http://www.w3.org/2000/svg" xmlns:xlink="http://www.w3.org/1999/xlink">
<g id="graph1" class="graph" transform="scale(1 1) rotate(0) translate(4 328)">
<title>G</title>
<polygon fill="white" stroke="white" points="-4,5 -4,-328 2484.82,-328 2484.82,5 -4,5"/>
<!-- [111] return -->
<g id="node1" class="node"><title>[111] return</title>
<ellipse fill="none" stroke="black" cx="1190" cy="-306" rx="56.577" ry="18"/>
<text text-anchor="middle" x="1190" y="-300.4" font-family="Times,serif" font-size="14.00">[111] return</text>
</g>
<!-- [111] [Object] -->
<g id="node3" class="node"><title>[111] [Object]</title>
<ellipse fill="none" stroke="black" cx="1190" cy="-234" rx="65.2511" ry="18"/>
<text text-anchor="middle" x="1190" y="-228.4" font-family="Times,serif" font-size="14.00">[111] [Object]</text>
</g>
<!-- [111] return&#45;&gt;[111] [Object] -->
<g id="edge2" class="edge"><title>[111] return&#45;&gt;[111] [Object]</title>
<path fill="none" stroke="black" d="M1190,-287.697C1190,-279.983 1190,-270.712 1190,-262.112"/>
<polygon fill="black" stroke="black" points="1193.5,-262.104 1190,-252.104 1186.5,-262.104 1193.5,-262.104"/>
</g>
<!-- [21] watches = select from {watchList} {itemDetails} -->
<g id="node5" class="node"><title>[21] watches = select from {watchList} {itemDetails}</title>
<ellipse fill="none" stroke="black" cx="1430" cy="-162" rx="220.078" ry="18"/>
<text text-anchor="middle" x="1430" y="-156.4" font-family="Times,serif" font-size="14.00">[21] watches = select from {watchList} {itemDetails}</text>
</g>
<!-- [111] [Object]&#45;&gt;[21] watches = select from {watchList} {itemDetails} -->
<g id="edge4" class="edge"><title>[111] [Object]&#45;&gt;[21] watches = select from {watchList} {itemDetails}</title>
<path fill="none" stroke="black" d="M1233.18,-220.405C1269.54,-209.8 1322.13,-194.462 1363.8,-182.308"/>
<polygon fill="black" stroke="black" points="1364.98,-185.61 1373.6,-179.45 1363.02,-178.89 1364.98,-185.61"/>
</g>
<!-- [39] bids = select from {bidList} {itemDetails} -->
<g id="node15" class="node"><title>[39] bids = select from {bidList} {itemDetails}</title>
<ellipse fill="none" stroke="black" cx="1862" cy="-162" rx="193.995" ry="18"/>
<text text-anchor="middle" x="1862" y="-156.4" font-family="Times,serif" font-size="14.00">[39] bids = select from {bidList} {itemDetails}</text>
</g>
<!-- [111] [Object]&#45;&gt;[39] bids = select from {bidList} {itemDetails} -->
<g id="edge14" class="edge"><title>[111] [Object]&#45;&gt;[39] bids = select from {bidList} {itemDetails}</title>
<path fill="none" stroke="black" d="M1249.93,-226.757C1356.74,-215.631 1582.42,-192.122 1727.88,-176.97"/>
<polygon fill="black" stroke="black" points="1728.63,-180.411 1738.22,-175.894 1727.91,-173.449 1728.63,-180.411"/>
</g>
<!-- [57] won = select from {wonList} {itemDetails} -->
<g id="node22" class="node"><title>[57] won = select from {wonList} {itemDetails}</title>
<ellipse fill="none" stroke="black" cx="491" cy="-162" rx="199.23" ry="18"/>
<text text-anchor="middle" x="491" y="-156.4" font-family="Times,serif" font-size="14.00">[57] won = select from {wonList} {itemDetails}</text>
</g>
<!-- [111] [Object]&#45;&gt;[57] won = select from {wonList} {itemDetails} -->
<g id="edge24" class="edge"><title>[111] [Object]&#45;&gt;[57] won = select from {wonList} {itemDetails}</title>
<path fill="none" stroke="black" d="M1129.5,-226.941C1018.86,-215.861 781.351,-192.077 629.258,-176.846"/>
<polygon fill="black" stroke="black" points="629.211,-173.323 618.912,-175.809 628.513,-180.289 629.211,-173.323"/>
</g>
<!-- [10] wonList = [Object] -->
<g id="node24" class="node"><title>[10] wonList = [Object]</title>
<ellipse fill="none" stroke="black" cx="597" cy="-90" rx="103.46" ry="18"/>
<text text-anchor="middle" x="597" y="-84.4" font-family="Times,serif" font-size="14.00">[10] wonList = [Object]</text>
</g>
<!-- [111] [Object]&#45;&gt;[10] wonList = [Object] -->
<g id="edge54" class="edge"><title>[111] [Object]&#45;&gt;[10] wonList = [Object]</title>
<path fill="none" stroke="black" d="M1124.98,-231.618C922.005,-226.992 311.851,-210.586 283,-180 272.021,-168.361 272.671,-156.219 283,-144 308.927,-113.33 406.56,-100.401 486.158,-94.9552"/>
<polygon fill="black" stroke="black" points="486.514,-98.4395 496.266,-94.2967 486.059,-91.4544 486.514,-98.4395"/>
</g>
<!-- [75] lost = select from {lostList} {itemDetails} -->
<g id="node29" class="node"><title>[75] lost = select from {lostList} {itemDetails}</title>
<ellipse fill="none" stroke="black" cx="2268" cy="-162" rx="193.196" ry="18"/>
<text text-anchor="middle" x="2268" y="-156.4" font-family="Times,serif" font-size="14.00">[75] lost = select from {lostList} {itemDetails}</text>
</g>
<!-- [111] [Object]&#45;&gt;[75] lost = select from {lostList} {itemDetails} -->
<g id="edge34" class="edge"><title>[111] [Object]&#45;&gt;[75] lost = select from {lostList} {itemDetails}</title>
<path fill="none" stroke="black" d="M1253.71,-229.645C1398.12,-221.931 1761.41,-201.903 2065,-180 2083.47,-178.667 2102.88,-177.168 2122.08,-175.627"/>
<polygon fill="black" stroke="black" points="2122.4,-179.112 2132.09,-174.818 2121.84,-172.135 2122.4,-179.112"/>
</g>
<!-- [93] bestOffers = select from {bestOfferList} {itemDetails} -->
<g id="node36" class="node"><title>[93] bestOffers = select from {bestOfferList} {itemDetails}</title>
<ellipse fill="none" stroke="black" cx="950" cy="-162" rx="242.356" ry="18"/>
<text text-anchor="middle" x="950" y="-156.4" font-family="Times,serif" font-size="14.00">[93] bestOffers = select from {bestOfferList} {itemDetails}</text>
</g>
<!-- [111] [Object]&#45;&gt;[93] bestOffers = select from {bestOfferList} {itemDetails} -->
<g id="edge44" class="edge"><title>[111] [Object]&#45;&gt;[93] bestOffers = select from {bestOfferList} {itemDetails}</title>
<path fill="none" stroke="black" d="M1146.82,-220.405C1110.58,-209.837 1058.23,-194.568 1016.63,-182.434"/>
<polygon fill="black" stroke="black" points="1017.42,-179.02 1006.84,-179.58 1015.46,-185.74 1017.42,-179.02"/>
</g>
<!-- [5] buyingErrors = [Object] -->
<g id="node45" class="node"><title>[5] buyingErrors = [Object]</title>
<ellipse fill="none" stroke="black" cx="118" cy="-162" rx="118.175" ry="18"/>
<text text-anchor="middle" x="118" y="-156.4" font-family="Times,serif" font-size="14.00">[5] buyingErrors = [Object]</text>
</g>
<!-- [111] [Object]&#45;&gt;[5] buyingErrors = [Object] -->
<g id="edge58" class="edge"><title>[111] [Object]&#45;&gt;[5] buyingErrors = [Object]</title>
<path fill="none" stroke="black" d="M1125.49,-230.959C972.986,-225.786 578.367,-210.363 250,-180 237.655,-178.859 224.686,-177.449 211.897,-175.933"/>
<polygon fill="black" stroke="black" points="212.043,-172.425 201.695,-174.698 211.201,-179.375 212.043,-172.425"/>
</g>
<!-- [18] multipleErrors = [Object] -->
<g id="node48" class="node"><title>[18] multipleErrors = [Object]</title>
<ellipse fill="none" stroke="black" cx="2307" cy="-90" rx="127.96" ry="18"/>
<text text-anchor="middle" x="2307" y="-84.4" font-family="Times,serif" font-size="14.00">[18] multipleErrors = [Object]</text>
</g>
<!-- [111] [Object]&#45;&gt;[18] multipleErrors = [Object] -->
<g id="edge62" class="edge"><title>[111] [Object]&#45;&gt;[18] multipleErrors = [Object]</title>
<path fill="none" stroke="black" d="M1255.43,-232.773C1510.7,-231.572 2427.61,-224.185 2470,-180 2502.59,-146.036 2445,-121.866 2389.49,-107.365"/>
<polygon fill="black" stroke="black" points="2390.09,-103.906 2379.53,-104.858 2388.38,-110.694 2390.09,-103.906"/>
</g>
<!-- [8] watchList = [Object] -->
<g id="node7" class="node"><title>[8] watchList = [Object]</title>
<ellipse fill="none" stroke="black" cx="1196" cy="-90" rx="105.359" ry="18"/>
<text text-anchor="middle" x="1196" y="-84.4" font-family="Times,serif" font-size="14.00">[8] watchList = [Object]</text>
</g>
<!-- [21] watches = select from {watchList} {itemDetails}&#45;&gt;[8] watchList = [Object] -->
<g id="edge6" class="edge"><title>[21] watches = select from {watchList} {itemDetails}&#45;&gt;[8] watchList = [Object]</title>
<path fill="none" stroke="black" d="M1374.84,-144.5C1339,-133.776 1292.28,-119.802 1255.59,-108.825"/>
<polygon fill="black" stroke="black" points="1256.59,-105.471 1246,-105.958 1254.58,-112.177 1256.59,-105.471"/>
</g>
<!-- [17] itemDetails = [Object] -->
<g id="node11" class="node"><title>[17] itemDetails = [Object]</title>
<ellipse fill="none" stroke="black" cx="1862" cy="-90" rx="116.256" ry="18"/>
<text text-anchor="middle" x="1862" y="-84.4" font-family="Times,serif" font-size="14.00">[17] itemDetails = [Object]</text>
</g>
<!-- [21] watches = select from {watchList} {itemDetails}&#45;&gt;[17] itemDetails = [Object] -->
<g id="edge10" class="edge"><title>[21] watches = select from {watchList} {itemDetails}&#45;&gt;[17] itemDetails = [Object]</title>
<path fill="none" stroke="black" d="M1524.27,-145.725C1598.84,-133.641 1702.15,-116.901 1774.82,-105.126"/>
<polygon fill="black" stroke="black" points="1775.55,-108.553 1784.86,-103.499 1774.43,-101.644 1775.55,-108.553"/>
</g>
<!-- [1] GetMyeBayBuyingResponse = select from ebay.trading.getmyebaybuying -->
<g id="node9" class="node"><title>[1] GetMyeBayBuyingResponse = select from ebay.trading.getmyebaybuying</title>
<ellipse fill="none" stroke="black" cx="949" cy="-18" rx="312.298" ry="18"/>
<text text-anchor="middle" x="949" y="-12.4" font-family="Times,serif" font-size="14.00">[1] GetMyeBayBuyingResponse = select from ebay.trading.getmyebaybuying</text>
</g>
<!-- [8] watchList = [Object]&#45;&gt;[1] GetMyeBayBuyingResponse = select from ebay.trading.getmyebaybuying -->
<g id="edge8" class="edge"><title>[8] watchList = [Object]&#45;&gt;[1] GetMyeBayBuyingResponse = select from ebay.trading.getmyebaybuying</title>
<path fill="none" stroke="black" d="M1144.22,-74.3257C1107.5,-63.9184 1057.83,-49.8419 1017.78,-38.4923"/>
<polygon fill="black" stroke="black" points="1018.66,-35.1035 1008.08,-35.7441 1016.75,-41.8382 1018.66,-35.1035"/>
</g>
<!-- [15] GetMultipleItemsResponse = select from ebay.shopping.multipleitems -->
<g id="node13" class="node"><title>[15] GetMultipleItemsResponse = select from ebay.shopping.multipleitems</title>
<ellipse fill="none" stroke="black" cx="1862" cy="-18" rx="302.034" ry="18"/>
<text text-anchor="middle" x="1862" y="-12.4" font-family="Times,serif" font-size="14.00">[15] GetMultipleItemsResponse = select from ebay.shopping.multipleitems</text>
</g>
<!-- [17] itemDetails = [Object]&#45;&gt;[15] GetMultipleItemsResponse = select from ebay.shopping.multipleitems -->
<g id="edge22" class="edge"><title>[17] itemDetails = [Object]&#45;&gt;[15] GetMultipleItemsResponse = select from ebay.shopping.multipleitems</title>
<path fill="none" stroke="black" d="M1838.49,-72.055C1835.18,-64.2609 1834.22,-54.8219 1835.62,-46.0789"/>
<polygon fill="black" stroke="black" points="1839.04,-46.8473 1838.35,-36.2753 1832.3,-44.973 1839.04,-46.8473"/>
</g>
<!-- [17] itemDetails = [Object]&#45;&gt;[15] GetMultipleItemsResponse = select from ebay.shopping.multipleitems -->
<g id="edge32" class="edge"><title>[17] itemDetails = [Object]&#45;&gt;[15] GetMultipleItemsResponse = select from ebay.shopping.multipleitems</title>
<path fill="none" stroke="black" d="M1862,-71.6966C1862,-63.9827 1862,-54.7125 1862,-46.1124"/>
<polygon fill="black" stroke="black" points="1865.5,-46.1043 1862,-36.1043 1858.5,-46.1044 1865.5,-46.1043"/>
</g>
<!-- [17] itemDetails = [Object]&#45;&gt;[15] GetMultipleItemsResponse = select from ebay.shopping.multipleitems -->
<g id="edge42" class="edge"><title>[17] itemDetails = [Object]&#45;&gt;[15] GetMultipleItemsResponse = select from ebay.shopping.multipleitems</title>
<path fill="none" stroke="black" d="M1873.76,-72.055C1875.39,-64.3456 1875.88,-55.0269 1875.21,-46.3642"/>
<polygon fill="black" stroke="black" points="1878.65,-45.7065 1873.83,-36.2753 1871.72,-46.6584 1878.65,-45.7065"/>
</g>
<!-- [17] itemDetails = [Object]&#45;&gt;[15] GetMultipleItemsResponse = select from ebay.shopping.multipleitems -->
<g id="edge52" class="edge"><title>[17] itemDetails = [Object]&#45;&gt;[15] GetMultipleItemsResponse = select from ebay.shopping.multipleitems</title>
<path fill="none" stroke="black" d="M1885.51,-72.055C1888.82,-64.2609 1889.78,-54.8219 1888.38,-46.0789"/>
<polygon fill="black" stroke="black" points="1891.7,-44.973 1885.65,-36.2753 1884.96,-46.8473 1891.7,-44.973"/>
</g>
<!-- [17] itemDetails = [Object]&#45;&gt;[15] GetMultipleItemsResponse = select from ebay.shopping.multipleitems -->
<g id="edge12" class="edge"><title>[17] itemDetails = [Object]&#45;&gt;[15] GetMultipleItemsResponse = select from ebay.shopping.multipleitems</title>
<path fill="none" stroke="black" d="M1850.24,-72.055C1848.61,-64.3456 1848.12,-55.0269 1848.79,-46.3642"/>
<polygon fill="black" stroke="black" points="1852.28,-46.6584 1850.17,-36.2753 1845.35,-45.7065 1852.28,-46.6584"/>
</g>
<!-- [39] bids = select from {bidList} {itemDetails}&#45;&gt;[17] itemDetails = [Object] -->
<g id="edge20" class="edge"><title>[39] bids = select from {bidList} {itemDetails}&#45;&gt;[17] itemDetails = [Object]</title>
<path fill="none" stroke="black" d="M1862,-143.697C1862,-135.983 1862,-126.712 1862,-118.112"/>
<polygon fill="black" stroke="black" points="1865.5,-118.104 1862,-108.104 1858.5,-118.104 1865.5,-118.104"/>
</g>
<!-- [9] bidList = [Object] -->
<g id="node17" class="node"><title>[9] bidList = [Object]</title>
<ellipse fill="none" stroke="black" cx="1414" cy="-90" rx="94.2814" ry="18"/>
<text text-anchor="middle" x="1414" y="-84.4" font-family="Times,serif" font-size="14.00">[9] bidList = [Object]</text>
</g>
<!-- [39] bids = select from {bidList} {itemDetails}&#45;&gt;[9] bidList = [Object] -->
<g id="edge16" class="edge"><title>[39] bids = select from {bidList} {itemDetails}&#45;&gt;[9] bidList = [Object]</title>
<path fill="none" stroke="black" d="M1764.92,-146.382C1695.77,-135.896 1600.63,-121.325 1517,-108 1509.05,-106.733 1500.75,-105.393 1492.47,-104.045"/>
<polygon fill="black" stroke="black" points="1492.84,-100.559 1482.41,-102.4 1491.71,-107.467 1492.84,-100.559"/>
</g>
<!-- [9] bidList = [Object]&#45;&gt;[1] GetMyeBayBuyingResponse = select from ebay.trading.getmyebaybuying -->
<g id="edge18" class="edge"><title>[9] bidList = [Object]&#45;&gt;[1] GetMyeBayBuyingResponse = select from ebay.trading.getmyebaybuying</title>
<path fill="none" stroke="black" d="M1345.22,-77.5947C1333.47,-75.6937 1321.39,-73.7669 1310,-72 1230.2,-59.621 1140.36,-46.4281 1070.26,-36.3016"/>
<polygon fill="black" stroke="black" points="1070.47,-32.7946 1060.07,-34.8302 1069.47,-39.7228 1070.47,-32.7946"/>
</g>
<!-- [57] won = select from {wonList} {itemDetails}&#45;&gt;[17] itemDetails = [Object] -->
<g id="edge30" class="edge"><title>[57] won = select from {wonList} {itemDetails}&#45;&gt;[17] itemDetails = [Object]</title>
<path fill="none" stroke="black" d="M627.715,-148.908C651.468,-147.07 675.941,-145.342 699,-144 1159.39,-117.21 1276.48,-146.879 1736,-108 1747.6,-107.019 1759.77,-105.72 1771.77,-104.277"/>
<polygon fill="black" stroke="black" points="1772.31,-107.737 1781.81,-103.034 1771.45,-100.79 1772.31,-107.737"/>
</g>
<!-- [57] won = select from {wonList} {itemDetails}&#45;&gt;[10] wonList = [Object] -->
<g id="edge26" class="edge"><title>[57] won = select from {wonList} {itemDetails}&#45;&gt;[10] wonList = [Object]</title>
<path fill="none" stroke="black" d="M516.66,-144.055C530.694,-134.787 548.25,-123.194 563.368,-113.21"/>
<polygon fill="black" stroke="black" points="565.526,-115.979 571.942,-107.547 561.669,-110.137 565.526,-115.979"/>
</g>
<!-- [10] wonList = [Object]&#45;&gt;[1] GetMyeBayBuyingResponse = select from ebay.trading.getmyebaybuying -->
<g id="edge28" class="edge"><title>[10] wonList = [Object]&#45;&gt;[1] GetMyeBayBuyingResponse = select from ebay.trading.getmyebaybuying</title>
<path fill="none" stroke="black" d="M659.006,-75.5861C712.134,-64.7182 789.503,-49.2948 850.991,-37.2944"/>
<polygon fill="black" stroke="black" points="851.96,-40.6715 861.106,-35.3234 850.621,-33.8007 851.96,-40.6715"/>
</g>
<!-- [10] wonList = [Object]&#45;&gt;[1] GetMyeBayBuyingResponse = select from ebay.trading.getmyebaybuying -->
<g id="edge56" class="edge"><title>[10] wonList = [Object]&#45;&gt;[1] GetMyeBayBuyingResponse = select from ebay.trading.getmyebaybuying</title>
<path fill="none" stroke="black" d="M665.246,-76.4854C721.388,-65.6453 801.233,-49.8147 861.958,-37.5095"/>
<polygon fill="black" stroke="black" points="862.811,-40.9079 871.915,-35.4886 861.418,-34.0477 862.811,-40.9079"/>
</g>
<!-- [75] lost = select from {lostList} {itemDetails}&#45;&gt;[17] itemDetails = [Object] -->
<g id="edge40" class="edge"><title>[75] lost = select from {lostList} {itemDetails}&#45;&gt;[17] itemDetails = [Object]</title>
<path fill="none" stroke="black" d="M2180.4,-145.897C2111.08,-133.945 2014.88,-117.358 1946.4,-105.552"/>
<polygon fill="black" stroke="black" points="1946.95,-102.095 1936.5,-103.845 1945.76,-108.994 1946.95,-102.095"/>
</g>
<!-- [11] lostList = [Object] -->
<g id="node31" class="node"><title>[11] lostList = [Object]</title>
<ellipse fill="none" stroke="black" cx="1627" cy="-90" rx="100.412" ry="18"/>
<text text-anchor="middle" x="1627" y="-84.4" font-family="Times,serif" font-size="14.00">[11] lostList = [Object]</text>
</g>
<!-- [75] lost = select from {lostList} {itemDetails}&#45;&gt;[11] lostList = [Object] -->
<g id="edge36" class="edge"><title>[75] lost = select from {lostList} {itemDetails}&#45;&gt;[11] lostList = [Object]</title>
<path fill="none" stroke="black" d="M2129.98,-149.363C2022.45,-139.787 1869.5,-125.047 1736,-108 1727.07,-106.86 1717.75,-105.565 1708.47,-104.211"/>
<polygon fill="black" stroke="black" points="1708.86,-100.73 1698.45,-102.724 1707.83,-107.654 1708.86,-100.73"/>
</g>
<!-- [11] lostList = [Object]&#45;&gt;[1] GetMyeBayBuyingResponse = select from ebay.trading.getmyebaybuying -->
<g id="edge38" class="edge"><title>[11] lostList = [Object]&#45;&gt;[1] GetMyeBayBuyingResponse = select from ebay.trading.getmyebaybuying</title>
<path fill="none" stroke="black" d="M1555.49,-77.3087C1542.69,-75.399 1529.47,-73.5434 1517,-72 1390.59,-56.3488 1247.84,-43.0468 1137.06,-33.6838"/>
<polygon fill="black" stroke="black" points="1137.04,-30.1697 1126.78,-32.8185 1136.46,-37.1451 1137.04,-30.1697"/>
</g>
<!-- [93] bestOffers = select from {bestOfferList} {itemDetails}&#45;&gt;[17] itemDetails = [Object] -->
<g id="edge50" class="edge"><title>[93] bestOffers = select from {bestOfferList} {itemDetails}&#45;&gt;[17] itemDetails = [Object]</title>
<path fill="none" stroke="black" d="M1122.15,-149.33C1148.56,-147.543 1175.51,-145.721 1201,-144 1438.77,-127.948 1498.89,-131.946 1736,-108 1747.04,-106.885 1758.6,-105.552 1770.06,-104.13"/>
<polygon fill="black" stroke="black" points="1770.6,-107.59 1780.08,-102.861 1769.72,-100.645 1770.6,-107.59"/>
</g>
<!-- [12] bestOfferList = [Object] -->
<g id="node38" class="node"><title>[12] bestOfferList = [Object]</title>
<ellipse fill="none" stroke="black" cx="949" cy="-90" rx="122.955" ry="18"/>
<text text-anchor="middle" x="949" y="-84.4" font-family="Times,serif" font-size="14.00">[12] bestOfferList = [Object]</text>
</g>
<!-- [93] bestOffers = select from {bestOfferList} {itemDetails}&#45;&gt;[12] bestOfferList = [Object] -->
<g id="edge46" class="edge"><title>[93] bestOffers = select from {bestOfferList} {itemDetails}&#45;&gt;[12] bestOfferList = [Object]</title>
<path fill="none" stroke="black" d="M949.753,-143.697C949.643,-135.983 949.51,-126.712 949.387,-118.112"/>
<polygon fill="black" stroke="black" points="952.887,-118.053 949.244,-108.104 945.888,-118.153 952.887,-118.053"/>
</g>
<!-- [12] bestOfferList = [Object]&#45;&gt;[1] GetMyeBayBuyingResponse = select from ebay.trading.getmyebaybuying -->
<g id="edge48" class="edge"><title>[12] bestOfferList = [Object]&#45;&gt;[1] GetMyeBayBuyingResponse = select from ebay.trading.getmyebaybuying</title>
<path fill="none" stroke="black" d="M949,-71.6966C949,-63.9827 949,-54.7125 949,-46.1124"/>
<polygon fill="black" stroke="black" points="952.5,-46.1043 949,-36.1043 945.5,-46.1044 952.5,-46.1043"/>
</g>
<!-- [5] buyingErrors = [Object]&#45;&gt;[1] GetMyeBayBuyingResponse = select from ebay.trading.getmyebaybuying -->
<g id="edge60" class="edge"><title>[5] buyingErrors = [Object]&#45;&gt;[1] GetMyeBayBuyingResponse = select from ebay.trading.getmyebaybuying</title>
<path fill="none" stroke="black" d="M171.201,-145.842C242.039,-126.173 371.491,-92.0103 484,-72 577.686,-55.3375 682.971,-42.8283 769.634,-34.1596"/>
<polygon fill="black" stroke="black" points="770.233,-37.6175 779.839,-33.148 769.543,-30.6516 770.233,-37.6175"/>
</g>
<!-- [18] multipleErrors = [Object]&#45;&gt;[15] GetMultipleItemsResponse = select from ebay.shopping.multipleitems -->
<g id="edge64" class="edge"><title>[18] multipleErrors = [Object]&#45;&gt;[15] GetMultipleItemsResponse = select from ebay.shopping.multipleitems</title>
<path fill="none" stroke="black" d="M2225.12,-76.1202C2154.47,-65.0061 2051.76,-48.8496 1973.59,-36.5533"/>
<polygon fill="black" stroke="black" points="1974.12,-33.094 1963.7,-34.9975 1973.03,-40.009 1974.12,-33.094"/>
</g>
</g>
</svg>
