<?xml version="1.0" encoding="UTF-8" standalone="no"?>
<!DOCTYPE svg PUBLIC "-//W3C//DTD SVG 1.1//EN"
 "http://www.w3.org/Graphics/SVG/1.1/DTD/svg11.dtd">
<!-- Generated by graphviz version 2.28.0 (20111028.1807)
 -->
<!-- Title: G Pages: 1 -->
<svg width="720pt" height="476pt"
 viewBox="0.00 0.00 720.00 476.00" xmlns="http://www.w3.org/2000/svg" xmlns:xlink="http://www.w3.org/1999/xlink">
<g id="graph1" class="graph" transform="scale(1 1) rotate(0) translate(4 472)">
<title>G</title>
<polygon fill="white" stroke="white" points="-4,5 -4,-472 717,-472 717,5 -4,5"/>
<!-- [12] return -->
<g id="node1" class="node"><title>[12] return</title>
<ellipse fill="none" stroke="black" cx="199" cy="-450" rx="52.3954" ry="18"/>
<text text-anchor="middle" x="199" y="-444.4" font-family="Times,serif" font-size="14.00">[12] return</text>
</g>
<!-- [12] [Object] -->
<g id="node3" class="node"><title>[12] [Object]</title>
<ellipse fill="none" stroke="black" cx="199" cy="-378" rx="61.5673" ry="18"/>
<text text-anchor="middle" x="199" y="-372.4" font-family="Times,serif" font-size="14.00">[12] [Object]</text>
</g>
<!-- [12] return&#45;&gt;[12] [Object] -->
<g id="edge2" class="edge"><title>[12] return&#45;&gt;[12] [Object]</title>
<path fill="none" stroke="black" d="M199,-431.697C199,-423.983 199,-414.712 199,-406.112"/>
<polygon fill="black" stroke="black" points="202.5,-406.104 199,-396.104 195.5,-406.104 202.5,-406.104"/>
</g>
<!-- [3] dailyDeals = [Object] -->
<g id="node5" class="node"><title>[3] dailyDeals = [Object]</title>
<ellipse fill="none" stroke="black" cx="252" cy="-90" rx="108.182" ry="18"/>
<text text-anchor="middle" x="252" y="-84.4" font-family="Times,serif" font-size="14.00">[3] dailyDeals = [Object]</text>
</g>
<!-- [12] [Object]&#45;&gt;[3] dailyDeals = [Object] -->
<g id="edge4" class="edge"><title>[12] [Object]&#45;&gt;[3] dailyDeals = [Object]</title>
<path fill="none" stroke="black" d="M177.291,-361.089C165.773,-351.556 152.319,-338.49 144,-324 103.422,-253.322 62.4505,-210.896 109,-144 121.852,-125.53 141.93,-113.483 163.021,-105.629"/>
<polygon fill="black" stroke="black" points="164.425,-108.848 172.76,-102.307 162.165,-102.222 164.425,-108.848"/>
</g>
<!-- [9] itemDetails = select from {items} -->
<g id="node9" class="node"><title>[9] itemDetails = select from {items}</title>
<ellipse fill="none" stroke="black" cx="308" cy="-306" rx="154.917" ry="18"/>
<text text-anchor="middle" x="308" y="-300.4" font-family="Times,serif" font-size="14.00">[9] itemDetails = select from {items}</text>
</g>
<!-- [12] [Object]&#45;&gt;[9] itemDetails = select from {items} -->
<g id="edge8" class="edge"><title>[12] [Object]&#45;&gt;[9] itemDetails = select from {items}</title>
<path fill="none" stroke="black" d="M223.462,-361.291C238.079,-351.904 256.888,-339.824 273.052,-329.444"/>
<polygon fill="black" stroke="black" points="275.193,-332.228 281.716,-323.88 271.411,-326.338 275.193,-332.228"/>
</g>
<!-- [1] dailyDealsResponse = select from ebay.deals.getdailydeals -->
<g id="node7" class="node"><title>[1] dailyDealsResponse = select from ebay.deals.getdailydeals</title>
<ellipse fill="none" stroke="black" cx="252" cy="-18" rx="252.153" ry="18"/>
<text text-anchor="middle" x="252" y="-12.4" font-family="Times,serif" font-size="14.00">[1] dailyDealsResponse = select from ebay.deals.getdailydeals</text>
</g>
<!-- [3] dailyDeals = [Object]&#45;&gt;[1] dailyDealsResponse = select from ebay.deals.getdailydeals -->
<g id="edge6" class="edge"><title>[3] dailyDeals = [Object]&#45;&gt;[1] dailyDealsResponse = select from ebay.deals.getdailydeals</title>
<path fill="none" stroke="black" d="M246.084,-71.6966C245.289,-63.9827 245.062,-54.7125 245.405,-46.1124"/>
<polygon fill="black" stroke="black" points="248.898,-46.3243 246.105,-36.1043 241.915,-45.8356 248.898,-46.3243"/>
</g>
<!-- [3] dailyDeals = [Object]&#45;&gt;[1] dailyDealsResponse = select from ebay.deals.getdailydeals -->
<g id="edge16" class="edge"><title>[3] dailyDeals = [Object]&#45;&gt;[1] dailyDealsResponse = select from ebay.deals.getdailydeals</title>
<path fill="none" stroke="black" d="M257.916,-71.6966C258.711,-63.9827 258.938,-54.7125 258.595,-46.1124"/>
<polygon fill="black" stroke="black" points="262.085,-45.8356 257.895,-36.1043 255.102,-46.3243 262.085,-45.8356"/>
</g>
<!-- [7] items = [Object] -->
<g id="node11" class="node"><title>[7] items = [Object]</title>
<ellipse fill="none" stroke="black" cx="379" cy="-234" rx="88.1199" ry="18"/>
<text text-anchor="middle" x="379" y="-228.4" font-family="Times,serif" font-size="14.00">[7] items = [Object]</text>
</g>
<!-- [9] itemDetails = select from {items}&#45;&gt;[7] items = [Object] -->
<g id="edge10" class="edge"><title>[9] itemDetails = select from {items}&#45;&gt;[7] items = [Object]</title>
<path fill="none" stroke="black" d="M325.187,-288.055C334.083,-279.285 345.091,-268.432 354.828,-258.831"/>
<polygon fill="black" stroke="black" points="357.307,-261.302 361.971,-251.789 352.393,-256.317 357.307,-261.302"/>
</g>
<!-- [5] GetMultipleItemsResponse = select from ebay.shopping.multipleitems -->
<g id="node13" class="node"><title>[5] GetMultipleItemsResponse = select from ebay.shopping.multipleitems</title>
<ellipse fill="none" stroke="black" cx="415" cy="-162" rx="297.291" ry="18"/>
<text text-anchor="middle" x="415" y="-156.4" font-family="Times,serif" font-size="14.00">[5] GetMultipleItemsResponse = select from ebay.shopping.multipleitems</text>
</g>
<!-- [7] items = [Object]&#45;&gt;[5] GetMultipleItemsResponse = select from ebay.shopping.multipleitems -->
<g id="edge12" class="edge"><title>[7] items = [Object]&#45;&gt;[5] GetMultipleItemsResponse = select from ebay.shopping.multipleitems</title>
<path fill="none" stroke="black" d="M387.715,-216.055C391.854,-208.007 396.895,-198.205 401.512,-189.226"/>
<polygon fill="black" stroke="black" points="404.655,-190.769 406.116,-180.275 398.43,-187.567 404.655,-190.769"/>
</g>
<!-- [5] GetMultipleItemsResponse = select from ebay.shopping.multipleitems&#45;&gt;[3] dailyDeals = [Object] -->
<g id="edge14" class="edge"><title>[5] GetMultipleItemsResponse = select from ebay.shopping.multipleitems&#45;&gt;[3] dailyDeals = [Object]</title>
<path fill="none" stroke="black" d="M375.542,-144.055C352.336,-134.089 322.866,-121.433 298.53,-110.982"/>
<polygon fill="black" stroke="black" points="299.707,-107.678 289.137,-106.948 296.944,-114.11 299.707,-107.678"/>
</g>
</g>
</svg>
