<?xml version="1.0" encoding="UTF-8" standalone="no"?>
<!DOCTYPE svg PUBLIC "-//W3C//DTD SVG 1.1//EN"
 "http://www.w3.org/Graphics/SVG/1.1/DTD/svg11.dtd">
<!-- Generated by graphviz version 2.28.0 (20111028.1807)
 -->
<!-- Title: G Pages: 1 -->
<svg width="785pt" height="260pt"
 viewBox="0.00 0.00 785.00 260.00" xmlns="http://www.w3.org/2000/svg" xmlns:xlink="http://www.w3.org/1999/xlink">
<g id="graph1" class="graph" transform="scale(1 1) rotate(0) translate(4 256)">
<title>G</title>
<polygon fill="white" stroke="white" points="-4,5 -4,-256 782,-256 782,5 -4,5"/>
<!-- [8] return -->
<g id="node1" class="node"><title>[8] return</title>
<ellipse fill="none" stroke="black" cx="383" cy="-234" rx="47.1561" ry="18"/>
<text text-anchor="middle" x="383" y="-228.4" font-family="Times,serif" font-size="14.00">[8] return</text>
</g>
<!-- [8] select from {details} {reviews} -->
<g id="node3" class="node"><title>[8] select from {details} {reviews}</title>
<ellipse fill="none" stroke="black" cx="383" cy="-162" rx="146.233" ry="18"/>
<text text-anchor="middle" x="383" y="-156.4" font-family="Times,serif" font-size="14.00">[8] select from {details} {reviews}</text>
</g>
<!-- [8] return&#45;&gt;[8] select from {details} {reviews} -->
<g id="edge2" class="edge"><title>[8] return&#45;&gt;[8] select from {details} {reviews}</title>
<path fill="none" stroke="black" d="M383,-215.697C383,-207.983 383,-198.712 383,-190.112"/>
<polygon fill="black" stroke="black" points="386.5,-190.104 383,-180.104 379.5,-190.104 386.5,-190.104"/>
</g>
<!-- [3] details = select from eBay.ProductDetails -->
<g id="node5" class="node"><title>[3] details = select from eBay.ProductDetails</title>
<ellipse fill="none" stroke="black" cx="184" cy="-90" rx="184.201" ry="18"/>
<text text-anchor="middle" x="184" y="-84.4" font-family="Times,serif" font-size="14.00">[3] details = select from eBay.ProductDetails</text>
</g>
<!-- [8] select from {details} {reviews}&#45;&gt;[3] details = select from eBay.ProductDetails -->
<g id="edge4" class="edge"><title>[8] select from {details} {reviews}&#45;&gt;[3] details = select from eBay.ProductDetails</title>
<path fill="none" stroke="black" d="M336.845,-144.765C308.147,-134.67 271.042,-121.618 240.578,-110.902"/>
<polygon fill="black" stroke="black" points="241.535,-107.528 230.94,-107.511 239.212,-114.131 241.535,-107.528"/>
</g>
<!-- [5] reviews = select from eBay.ProductReviews -->
<g id="node9" class="node"><title>[5] reviews = select from eBay.ProductReviews</title>
<ellipse fill="none" stroke="black" cx="582" cy="-90" rx="195.291" ry="18"/>
<text text-anchor="middle" x="582" y="-84.4" font-family="Times,serif" font-size="14.00">[5] reviews = select from eBay.ProductReviews</text>
</g>
<!-- [8] select from {details} {reviews}&#45;&gt;[5] reviews = select from eBay.ProductReviews -->
<g id="edge8" class="edge"><title>[8] select from {details} {reviews}&#45;&gt;[5] reviews = select from eBay.ProductReviews</title>
<path fill="none" stroke="black" d="M429.155,-144.765C457.853,-134.67 494.958,-121.618 525.422,-110.902"/>
<polygon fill="black" stroke="black" points="526.788,-114.131 535.06,-107.511 524.465,-107.528 526.788,-114.131"/>
</g>
<!-- [1] prodid = select from eBay.FindProducts -->
<g id="node7" class="node"><title>[1] prodid = select from eBay.FindProducts</title>
<ellipse fill="none" stroke="black" cx="383" cy="-18" rx="178.381" ry="18"/>
<text text-anchor="middle" x="383" y="-12.4" font-family="Times,serif" font-size="14.00">[1] prodid = select from eBay.FindProducts</text>
</g>
<!-- [3] details = select from eBay.ProductDetails&#45;&gt;[1] prodid = select from eBay.FindProducts -->
<g id="edge6" class="edge"><title>[3] details = select from eBay.ProductDetails&#45;&gt;[1] prodid = select from eBay.FindProducts</title>
<path fill="none" stroke="black" d="M230.908,-72.4996C259.629,-62.3967 296.555,-49.4077 326.83,-38.7584"/>
<polygon fill="black" stroke="black" points="328.135,-42.0097 336.407,-35.3896 325.812,-35.4063 328.135,-42.0097"/>
</g>
<!-- [5] reviews = select from eBay.ProductReviews&#45;&gt;[1] prodid = select from eBay.FindProducts -->
<g id="edge10" class="edge"><title>[5] reviews = select from eBay.ProductReviews&#45;&gt;[1] prodid = select from eBay.FindProducts</title>
<path fill="none" stroke="black" d="M535.092,-72.4996C506.371,-62.3967 469.445,-49.4077 439.17,-38.7584"/>
<polygon fill="black" stroke="black" points="440.188,-35.4063 429.593,-35.3896 437.865,-42.0097 440.188,-35.4063"/>
</g>
</g>
</svg>
