<?xml version="1.0" encoding="UTF-8" standalone="no"?>
<!DOCTYPE svg PUBLIC "-//W3C//DTD SVG 1.1//EN"
 "http://www.w3.org/Graphics/SVG/1.1/DTD/svg11.dtd">
<!-- Generated by graphviz version 2.28.0 (20111028.1807)
 -->
<!-- Title: G Pages: 1 -->
<svg width="1513pt" height="404pt"
 viewBox="0.00 0.00 1513.00 404.00" xmlns="http://www.w3.org/2000/svg" xmlns:xlink="http://www.w3.org/1999/xlink">
<g id="graph1" class="graph" transform="scale(1 1) rotate(0) translate(4 400)">
<title>G</title>
<polygon fill="white" stroke="white" points="-4,5 -4,-400 1510,-400 1510,5 -4,5"/>
<!-- [23] return -->
<g id="node1" class="node"><title>[23] return</title>
<ellipse fill="none" stroke="black" cx="848" cy="-378" rx="52.3954" ry="18"/>
<text text-anchor="middle" x="848" y="-372.4" font-family="Times,serif" font-size="14.00">[23] return</text>
</g>
<!-- [23] [Object] -->
<g id="node3" class="node"><title>[23] [Object]</title>
<ellipse fill="none" stroke="black" cx="848" cy="-306" rx="61.5673" ry="18"/>
<text text-anchor="middle" x="848" y="-300.4" font-family="Times,serif" font-size="14.00">[23] [Object]</text>
</g>
<!-- [23] return&#45;&gt;[23] [Object] -->
<g id="edge2" class="edge"><title>[23] return&#45;&gt;[23] [Object]</title>
<path fill="none" stroke="black" d="M848,-359.697C848,-351.983 848,-342.712 848,-334.112"/>
<polygon fill="black" stroke="black" points="851.5,-334.104 848,-324.104 844.5,-334.104 851.5,-334.104"/>
</g>
<!-- [20] sessionId = [Object] -->
<g id="node5" class="node"><title>[20] sessionId = [Object]</title>
<ellipse fill="none" stroke="black" cx="264" cy="-234" rx="107.397" ry="18"/>
<text text-anchor="middle" x="264" y="-228.4" font-family="Times,serif" font-size="14.00">[20] sessionId = [Object]</text>
</g>
<!-- [23] [Object]&#45;&gt;[20] sessionId = [Object] -->
<g id="edge4" class="edge"><title>[23] [Object]&#45;&gt;[20] sessionId = [Object]</title>
<path fill="none" stroke="black" d="M792.268,-298.32C692.368,-286.345 481.782,-261.104 358.801,-246.363"/>
<polygon fill="black" stroke="black" points="358.987,-242.86 348.642,-245.145 358.154,-249.811 358.987,-242.86"/>
</g>
<!-- [21] sessionData = [Object] -->
<g id="node13" class="node"><title>[21] sessionData = [Object]</title>
<ellipse fill="none" stroke="black" cx="541" cy="-234" rx="118.175" ry="18"/>
<text text-anchor="middle" x="541" y="-228.4" font-family="Times,serif" font-size="14.00">[21] sessionData = [Object]</text>
</g>
<!-- [23] [Object]&#45;&gt;[21] sessionData = [Object] -->
<g id="edge12" class="edge"><title>[23] [Object]&#45;&gt;[21] sessionData = [Object]</title>
<path fill="none" stroke="black" d="M801.039,-294.292C751.102,-282.906 671.48,-264.751 613.485,-251.528"/>
<polygon fill="black" stroke="black" points="614.175,-248.095 603.647,-249.284 612.619,-254.92 614.175,-248.095"/>
</g>
<!-- [6] snpErrors = [Object] -->
<g id="node18" class="node"><title>[6] snpErrors = [Object]</title>
<ellipse fill="none" stroke="black" cx="848" cy="-234" rx="104.559" ry="18"/>
<text text-anchor="middle" x="848" y="-228.4" font-family="Times,serif" font-size="14.00">[6] snpErrors = [Object]</text>
</g>
<!-- [23] [Object]&#45;&gt;[6] snpErrors = [Object] -->
<g id="edge20" class="edge"><title>[23] [Object]&#45;&gt;[6] snpErrors = [Object]</title>
<path fill="none" stroke="black" d="M848,-287.697C848,-279.983 848,-270.712 848,-262.112"/>
<polygon fill="black" stroke="black" points="851.5,-262.104 848,-252.104 844.5,-262.104 851.5,-262.104"/>
</g>
<!-- [12] clientAlertsAuthTokenErrors = [Object] -->
<g id="node22" class="node"><title>[12] clientAlertsAuthTokenErrors = [Object]</title>
<ellipse fill="none" stroke="black" cx="1031" cy="-90" rx="184.219" ry="18"/>
<text text-anchor="middle" x="1031" y="-84.4" font-family="Times,serif" font-size="14.00">[12] clientAlertsAuthTokenErrors = [Object]</text>
</g>
<!-- [23] [Object]&#45;&gt;[12] clientAlertsAuthTokenErrors = [Object] -->
<g id="edge24" class="edge"><title>[23] [Object]&#45;&gt;[12] clientAlertsAuthTokenErrors = [Object]</title>
<path fill="none" stroke="black" d="M909.417,-305.196C996.674,-301.743 1154.02,-280.916 1227,-180 1254.84,-141.505 1206.7,-119.296 1151.18,-106.69"/>
<polygon fill="black" stroke="black" points="1151.63,-103.206 1141.11,-104.521 1150.15,-110.049 1151.63,-103.206"/>
</g>
<!-- [18] loginErrors = [Object] -->
<g id="node25" class="node"><title>[18] loginErrors = [Object]</title>
<ellipse fill="none" stroke="black" cx="1390" cy="-162" rx="115.456" ry="18"/>
<text text-anchor="middle" x="1390" y="-156.4" font-family="Times,serif" font-size="14.00">[18] loginErrors = [Object]</text>
</g>
<!-- [23] [Object]&#45;&gt;[18] loginErrors = [Object] -->
<g id="edge28" class="edge"><title>[23] [Object]&#45;&gt;[18] loginErrors = [Object]</title>
<path fill="none" stroke="black" d="M909.513,-305.945C991.992,-305.257 1141.73,-297.075 1260,-252 1299.5,-236.947 1338.68,-207.637 1363.53,-186.768"/>
<polygon fill="black" stroke="black" points="1366.07,-189.206 1371.39,-180.047 1361.52,-183.886 1366.07,-189.206"/>
</g>
<!-- [16] LoginResponse = select from ebay.clientalerts.login -->
<g id="node7" class="node"><title>[16] LoginResponse = select from ebay.clientalerts.login</title>
<ellipse fill="none" stroke="black" cx="230" cy="-162" rx="230.186" ry="18"/>
<text text-anchor="middle" x="230" y="-156.4" font-family="Times,serif" font-size="14.00">[16] LoginResponse = select from ebay.clientalerts.login</text>
</g>
<!-- [20] sessionId = [Object]&#45;&gt;[16] LoginResponse = select from ebay.clientalerts.login -->
<g id="edge6" class="edge"><title>[20] sessionId = [Object]&#45;&gt;[16] LoginResponse = select from ebay.clientalerts.login</title>
<path fill="none" stroke="black" d="M255.596,-215.697C251.725,-207.728 247.048,-198.1 242.757,-189.264"/>
<polygon fill="black" stroke="black" points="245.825,-187.57 238.308,-180.104 239.529,-190.629 245.825,-187.57"/>
</g>
<!-- [14] clientAlertsAuthToken = [Object] -->
<g id="node9" class="node"><title>[14] clientAlertsAuthToken = [Object]</title>
<ellipse fill="none" stroke="black" cx="522" cy="-90" rx="160.02" ry="18"/>
<text text-anchor="middle" x="522" y="-84.4" font-family="Times,serif" font-size="14.00">[14] clientAlertsAuthToken = [Object]</text>
</g>
<!-- [16] LoginResponse = select from ebay.clientalerts.login&#45;&gt;[14] clientAlertsAuthToken = [Object] -->
<g id="edge8" class="edge"><title>[16] LoginResponse = select from ebay.clientalerts.login&#45;&gt;[14] clientAlertsAuthToken = [Object]</title>
<path fill="none" stroke="black" d="M292.641,-144.588C336.532,-133.779 395.476,-119.639 442.647,-108.598"/>
<polygon fill="black" stroke="black" points="443.582,-111.974 452.524,-106.291 441.99,-105.157 443.582,-111.974"/>
</g>
<!-- [16] LoginResponse = select from ebay.clientalerts.login&#45;&gt;[14] clientAlertsAuthToken = [Object] -->
<g id="edge16" class="edge"><title>[16] LoginResponse = select from ebay.clientalerts.login&#45;&gt;[14] clientAlertsAuthToken = [Object]</title>
<path fill="none" stroke="black" d="M303.148,-144.853C348.823,-134.192 407.237,-120.205 452.256,-109.158"/>
<polygon fill="black" stroke="black" points="453.355,-112.492 462.229,-106.705 451.683,-105.695 453.355,-112.492"/>
</g>
<!-- [8] GetClientAlertsAuthTokenResponse = select from ebay.trading.getclientalertsauthtoken -->
<g id="node11" class="node"><title>[8] GetClientAlertsAuthTokenResponse = select from ebay.trading.getclientalertsauthtoken</title>
<ellipse fill="none" stroke="black" cx="776" cy="-18" rx="364.1" ry="18"/>
<text text-anchor="middle" x="776" y="-12.4" font-family="Times,serif" font-size="14.00">[8] GetClientAlertsAuthTokenResponse = select from ebay.trading.getclientalertsauthtoken</text>
</g>
<!-- [14] clientAlertsAuthToken = [Object]&#45;&gt;[8] GetClientAlertsAuthTokenResponse = select from ebay.trading.getclientalertsauthtoken -->
<g id="edge10" class="edge"><title>[14] clientAlertsAuthToken = [Object]&#45;&gt;[8] GetClientAlertsAuthTokenResponse = select from ebay.trading.getclientalertsauthtoken</title>
<path fill="none" stroke="black" d="M574.492,-72.9406C610.666,-62.6487 659.247,-49.23 699.672,-38.3513"/>
<polygon fill="black" stroke="black" points="700.743,-41.6878 709.494,-35.7153 698.928,-34.9271 700.743,-41.6878"/>
</g>
<!-- [14] clientAlertsAuthToken = [Object]&#45;&gt;[8] GetClientAlertsAuthTokenResponse = select from ebay.trading.getclientalertsauthtoken -->
<g id="edge18" class="edge"><title>[14] clientAlertsAuthToken = [Object]&#45;&gt;[8] GetClientAlertsAuthTokenResponse = select from ebay.trading.getclientalertsauthtoken</title>
<path fill="none" stroke="black" d="M584.417,-73.3778C622.964,-63.0883 672.272,-49.536 711.242,-38.5352"/>
<polygon fill="black" stroke="black" points="712.246,-41.8886 720.914,-35.7968 710.339,-35.1533 712.246,-41.8886"/>
</g>
<!-- [21] sessionData = [Object]&#45;&gt;[16] LoginResponse = select from ebay.clientalerts.login -->
<g id="edge14" class="edge"><title>[21] sessionData = [Object]&#45;&gt;[16] LoginResponse = select from ebay.clientalerts.login</title>
<path fill="none" stroke="black" d="M477.69,-218.75C429.721,-207.953 363.434,-193.033 311.504,-181.345"/>
<polygon fill="black" stroke="black" points="312.176,-177.909 301.651,-179.127 310.639,-184.738 312.176,-177.909"/>
</g>
<!-- [1] SetNotificationPreferencesResponse = select from ebay.trading.setnotificationpreferences -->
<g id="node20" class="node"><title>[1] SetNotificationPreferencesResponse = select from ebay.trading.setnotificationpreferences</title>
<ellipse fill="none" stroke="black" cx="848" cy="-162" rx="370.132" ry="18"/>
<text text-anchor="middle" x="848" y="-156.4" font-family="Times,serif" font-size="14.00">[1] SetNotificationPreferencesResponse = select from ebay.trading.setnotificationpreferences</text>
</g>
<!-- [6] snpErrors = [Object]&#45;&gt;[1] SetNotificationPreferencesResponse = select from ebay.trading.setnotificationpreferences -->
<g id="edge22" class="edge"><title>[6] snpErrors = [Object]&#45;&gt;[1] SetNotificationPreferencesResponse = select from ebay.trading.setnotificationpreferences</title>
<path fill="none" stroke="black" d="M848,-215.697C848,-207.983 848,-198.712 848,-190.112"/>
<polygon fill="black" stroke="black" points="851.5,-190.104 848,-180.104 844.5,-190.104 851.5,-190.104"/>
</g>
<!-- [12] clientAlertsAuthTokenErrors = [Object]&#45;&gt;[8] GetClientAlertsAuthTokenResponse = select from ebay.trading.getclientalertsauthtoken -->
<g id="edge26" class="edge"><title>[12] clientAlertsAuthTokenErrors = [Object]&#45;&gt;[8] GetClientAlertsAuthTokenResponse = select from ebay.trading.getclientalertsauthtoken</title>
<path fill="none" stroke="black" d="M972.178,-72.8527C934.889,-62.6167 886.43,-49.3142 847.005,-38.4915"/>
<polygon fill="black" stroke="black" points="847.758,-35.0689 837.188,-35.7968 845.905,-41.8192 847.758,-35.0689"/>
</g>
<!-- [18] loginErrors = [Object]&#45;&gt;[8] GetClientAlertsAuthTokenResponse = select from ebay.trading.getclientalertsauthtoken -->
<g id="edge30" class="edge"><title>[18] loginErrors = [Object]&#45;&gt;[8] GetClientAlertsAuthTokenResponse = select from ebay.trading.getclientalertsauthtoken</title>
<path fill="none" stroke="black" d="M1365.98,-144.356C1334.8,-123.658 1277.96,-88.9853 1224,-72 1163.01,-52.8038 1095.37,-40.4609 1031.51,-32.5525"/>
<polygon fill="black" stroke="black" points="1031.64,-29.0432 1021.3,-31.3209 1030.81,-35.9929 1031.64,-29.0432"/>
</g>
</g>
</svg>
